<svg width="612" height="332" viewBox="0 0 612 332" fill="none" xmlns="http://www.w3.org/2000/svg">
<g clip-path="url(#clip0_101_3)">
<path d="M212.057 241.358C234.734 272.635 264.617 291.78 302.61 296.901C337.532 301.589 364.895 296.232 393.754 275.117C394.423 274.631 395.214 274.339 396.038 274.274C396.862 274.208 397.689 274.372 398.426 274.747C399.163 275.122 399.782 275.693 400.215 276.398C400.649 277.103 400.879 277.914 400.88 278.741C400.88 288.353 404.817 293.356 404.817 302.377C404.817 303.637 403.164 305.292 401.865 306.08C374.447 322.699 342.651 330.643 310.643 328.871C278.635 327.1 247.909 315.696 222.49 296.153C213.596 288.904 205.252 281.004 197.529 272.517C196.683 271.374 195.483 270.542 194.117 270.15C192.75 269.758 191.292 269.829 189.969 270.351C164.323 278.416 138.088 284.474 111.503 288.471C88.9869 292.261 66.0624 292.99 43.3515 290.638C33.4813 290.114 23.7979 287.735 14.8074 283.626C10.9799 281.447 7.75759 278.345 5.43348 274.602C3.10937 270.86 1.75722 266.595 1.5 262.196C1.51332 260.298 1.65803 258.403 1.93308 256.524C5.87019 267.672 17.6815 276.22 30.359 278.466C55.6353 283.193 80.8328 280.79 105.991 277.402C131.429 274.23 156.488 268.529 180.796 260.384C182.528 259.794 184.261 259.045 186.19 258.336C185.642 257.444 185.143 256.524 184.694 255.579C183.119 251.324 180.442 250.93 176.229 252.191C151.05 260.143 125.232 265.903 99.0616 269.405C81.2735 272.113 63.1475 271.66 45.5169 268.066C31.6583 264.796 23.6266 256.248 22.7998 244.43C22.6099 234.73 25.8442 225.273 31.9339 217.722C45.5108 199.115 61.84 182.684 80.3603 168.994C105.227 150.083 131.498 133.095 158.945 118.177C164.976 114.873 169.76 109.685 172.567 103.405C192.883 57.4343 227.372 27.5747 275.287 12.6844C276.403 12.1655 277.673 12.0839 278.846 12.4558C280.02 12.8277 281.011 13.6261 281.625 14.6934C286.232 20.6811 290.996 26.5111 295.838 32.617C296.309 33.2073 296.624 33.906 296.756 34.6494C296.888 35.3928 296.832 36.1575 296.594 36.8738C296.355 37.5901 295.941 38.2353 295.39 38.7509C294.838 39.2665 294.167 39.636 293.437 39.8258C248.593 50.7769 216.309 76.9729 198.592 120.58C187.988 146.787 186.517 175.805 194.418 202.95C194.585 203.531 194.866 204.073 195.245 204.543C195.624 205.014 196.094 205.404 196.626 205.69C197.158 205.977 197.741 206.154 198.343 206.211C198.944 206.268 199.551 206.204 200.127 206.023L248.632 191.172C249.415 190.872 250.267 190.8 251.089 190.963C251.911 191.127 252.671 191.519 253.28 192.095C253.889 192.672 254.322 193.409 254.531 194.221C254.74 195.033 254.715 195.888 254.459 196.687C253.795 198.272 252.775 199.684 251.478 200.811C250.18 201.938 248.641 202.751 246.979 203.187C216.808 215.847 185.21 224.789 152.882 229.816C140.875 232.066 128.573 232.252 116.503 230.367C102.054 227.373 96.5812 213.389 103.432 200.271C107.827 191.764 113.799 184.171 121.031 177.897C132.527 167.891 146.071 158.2 158.354 149.061C162.292 146.304 161.898 142.286 161.74 137.243C160.638 137.834 159.614 138.268 158.669 138.898C136.346 153.119 111.109 164.779 93.904 185.145C86.4961 193.535 80.8464 203.327 77.2894 213.941C75.6507 218.474 75.669 223.441 77.3409 227.962C79.0128 232.483 82.2304 236.266 86.4234 238.64C101.542 246.518 111.7 245.573 124.85 245.336C154.811 244.824 192.686 239.152 258.711 210.356C261.07 209.237 263.661 208.697 266.271 208.78C267.606 209.213 268.82 209.955 269.814 210.947C270.534 211.512 271.071 212.276 271.358 213.145C271.645 214.014 271.67 214.949 271.428 215.831C270.682 217.61 269.268 219.024 267.491 219.771C250.719 226.467 233.868 232.967 217.017 239.467L212.057 241.358Z" stroke="#477E73" stroke-width="6"/>
<mask id="path-2-inside-1_101_3" fill="white">
<path d="M257.412 139.056C265.68 151.307 273.161 162.691 281.035 174.036C287.767 183.766 293.279 194.008 293.633 206.141C293.631 211.947 293.157 217.744 292.216 223.474C291.939 225.675 292.214 227.911 293.014 229.981C293.815 232.05 295.117 233.888 296.803 235.33C298.49 236.771 300.508 237.77 302.676 238.238C304.844 238.706 307.094 238.627 309.224 238.009C310.314 237.353 311.236 236.453 311.919 235.38C312.602 234.307 313.028 233.09 313.162 231.825C313.713 220.953 313.673 210.001 313.87 199.09C313.87 198.381 313.87 197.632 313.87 196.884C313.87 194.205 314.855 191.605 317.807 192.117C318.759 192.488 319.612 193.076 320.295 193.835C320.979 194.595 321.475 195.504 321.744 196.49C322.362 199.575 322.508 202.736 322.178 205.865C321.39 215.556 320.563 225.246 319.343 234.897C319.362 236.367 319.051 237.822 318.433 239.155C317.815 240.488 316.905 241.665 315.772 242.599C314.638 243.533 313.308 244.201 311.882 244.552C310.456 244.903 308.969 244.929 307.532 244.627C303.654 244.395 299.832 243.585 296.193 242.224C287.373 238.6 284.381 231.51 286.507 220.716C287.968 214.273 288.079 207.596 286.832 201.108C285.585 194.619 283.008 188.46 279.263 183.018C275.562 177.424 271.743 171.869 268.003 166.236C263.2 159.028 258.318 151.819 253.672 144.492C252.602 143.111 252.022 141.413 252.022 139.666C252.022 137.919 252.602 136.222 253.672 134.841C254.724 133.467 256.147 132.423 257.771 131.83C259.396 131.237 261.156 131.12 262.845 131.492C264.334 131.657 265.8 131.987 267.215 132.477C280.484 137.125 293.83 141.813 307.177 146.698C315.081 149.91 322.808 153.539 330.327 157.57C348.33 166.622 369.183 168.166 388.321 161.864C392.587 160.483 396.941 159.391 401.353 158.594C412.613 156.979 420.133 162.218 421.826 173.485C423.177 182.805 423.978 192.196 424.227 201.611C424.897 224.616 425.015 247.661 425.684 270.705C426.019 274.987 427.07 279.181 428.794 283.114C429.543 285.084 432.259 287.92 433.44 287.644C434.782 287.338 436.048 286.765 437.164 285.96C438.28 285.154 439.222 284.133 439.936 282.956C443.774 275.394 446.873 267.479 449.189 259.321C457.378 225.286 464.937 191.093 472.811 156.9C476.748 138.465 486.355 124.52 503.915 116.05C529.742 103.563 555.333 90.4846 580.924 77.4063C586.084 74.6933 590.987 71.5156 595.57 67.9127C598.65 65.9302 600.896 62.8864 601.883 59.3581C602.87 55.8297 602.529 52.0617 600.925 48.7679C597.618 40.8894 592.106 38.2107 583.169 39.2743C555.806 42.5045 530.608 52.786 505.45 63.1856C501.513 64.8007 497.576 66.5339 493.914 68.1884C487.066 71.1914 479.65 72.6759 472.174 72.5399C464.698 72.4039 457.341 70.6507 450.606 67.4006C408.059 48.2296 365.512 29.1373 322.965 10.1239C319.64 8.81579 316.18 7.87786 312.65 7.32701C311.401 7.31188 310.16 7.52549 308.988 7.95729C309.201 9.34411 309.668 10.6796 310.366 11.8965C324.737 27.9293 339.146 43.962 353.674 59.8372C361.903 68.7399 370.447 77.3275 378.793 86.112C380.449 87.8463 381.939 89.7323 383.242 91.7451C384.835 93.9998 385.929 96.5678 386.454 99.2784C386.978 101.989 386.92 104.78 386.283 107.467C385.646 110.153 384.445 112.673 382.76 114.859C381.075 117.046 378.945 118.848 376.51 120.147C368.635 124.48 360.407 128.026 352.218 131.65C350.997 132.162 349.107 131.177 347.533 130.901C348.112 129.304 348.907 127.793 349.895 126.411C350.98 125.62 352.191 125.021 353.478 124.638C358.478 122.314 363.557 120.068 368.557 117.665C382.888 110.772 384.738 101.554 373.872 90.0907C357.848 72.8761 341.588 55.9374 325.524 38.8804C319.107 32.0261 313.043 24.7779 306.823 17.6872C305.862 16.5452 304.968 15.3483 304.146 14.1025C302.916 12.7234 302.189 10.9688 302.081 9.12379C301.974 7.27878 302.493 5.45168 303.555 3.93925C304.463 2.35202 305.894 1.13024 307.604 0.483384C309.314 -0.163469 311.195 -0.195095 312.925 0.393928C320.534 2.55888 328.002 5.19002 335.288 8.27243C370.643 24.2658 405.776 40.4561 440.685 56.8434C452.496 62.3583 464.543 67.1642 477.772 64.9188C486.134 63.4483 494.299 61.0161 502.103 57.6706C521.789 49.28 541.475 40.4167 562.853 36.2017C570.447 34.5719 578.122 33.349 585.846 32.5382C596.752 31.6716 604.153 37.0683 608.012 47.7043C609.896 51.9451 610.159 56.7303 608.751 61.1522C607.343 65.5742 604.362 69.3254 600.374 71.6944C592.263 77.5393 583.751 82.8047 574.901 87.4514C555.609 97.4177 536.278 107.148 516.474 116.09C493.639 126.253 481.04 143.664 476.394 167.576C471.748 191.487 467.26 214.847 461.709 238.482C458.441 252.27 453.323 265.624 448.874 279.096C447.753 282.051 446.342 284.888 444.661 287.565C438.48 298.122 429.188 298.359 423.361 287.565C420.546 282.476 418.892 276.825 418.519 271.02C417.771 250.261 418.086 229.461 417.652 208.701C417.416 197.672 416.983 186.602 415.684 175.651C414.66 166.67 409.778 163.833 400.802 165.488C394.502 166.788 388.439 168.994 382.179 170.451C362.45 175.103 341.693 172.164 324.028 162.218C306.004 152.123 286.655 144.605 266.546 139.883C264.814 139.489 263.042 139.134 261.27 138.859C259.982 138.848 258.693 138.913 257.412 139.056Z"/>
</mask>
<path d="M257.412 139.056C265.68 151.307 273.161 162.691 281.035 174.036C287.767 183.766 293.279 194.008 293.633 206.141C293.631 211.947 293.157 217.744 292.216 223.474C291.939 225.675 292.214 227.911 293.014 229.981C293.815 232.05 295.117 233.888 296.803 235.33C298.49 236.771 300.508 237.77 302.676 238.238C304.844 238.706 307.094 238.627 309.224 238.009C310.314 237.353 311.236 236.453 311.919 235.38C312.602 234.307 313.028 233.09 313.162 231.825C313.713 220.953 313.673 210.001 313.87 199.09C313.87 198.381 313.87 197.632 313.87 196.884C313.87 194.205 314.855 191.605 317.807 192.117C318.759 192.488 319.612 193.076 320.295 193.835C320.979 194.595 321.475 195.504 321.744 196.49C322.362 199.575 322.508 202.736 322.178 205.865C321.39 215.556 320.563 225.246 319.343 234.897C319.362 236.367 319.051 237.822 318.433 239.155C317.815 240.488 316.905 241.665 315.772 242.599C314.638 243.533 313.308 244.201 311.882 244.552C310.456 244.903 308.969 244.929 307.532 244.627C303.654 244.395 299.832 243.585 296.193 242.224C287.373 238.6 284.381 231.51 286.507 220.716C287.968 214.273 288.079 207.596 286.832 201.108C285.585 194.619 283.008 188.46 279.263 183.018C275.562 177.424 271.743 171.869 268.003 166.236C263.2 159.028 258.318 151.819 253.672 144.492C252.602 143.111 252.022 141.413 252.022 139.666C252.022 137.919 252.602 136.222 253.672 134.841C254.724 133.467 256.147 132.423 257.771 131.83C259.396 131.237 261.156 131.12 262.845 131.492C264.334 131.657 265.8 131.987 267.215 132.477C280.484 137.125 293.83 141.813 307.177 146.698C315.081 149.91 322.808 153.539 330.327 157.57C348.33 166.622 369.183 168.166 388.321 161.864C392.587 160.483 396.941 159.391 401.353 158.594C412.613 156.979 420.133 162.218 421.826 173.485C423.177 182.805 423.978 192.196 424.227 201.611C424.897 224.616 425.015 247.661 425.684 270.705C426.019 274.987 427.07 279.181 428.794 283.114C429.543 285.084 432.259 287.92 433.44 287.644C434.782 287.338 436.048 286.765 437.164 285.96C438.28 285.154 439.222 284.133 439.936 282.956C443.774 275.394 446.873 267.479 449.189 259.321C457.378 225.286 464.937 191.093 472.811 156.9C476.748 138.465 486.355 124.52 503.915 116.05C529.742 103.563 555.333 90.4846 580.924 77.4063C586.084 74.6933 590.987 71.5156 595.57 67.9127C598.65 65.9302 600.896 62.8864 601.883 59.3581C602.87 55.8297 602.529 52.0617 600.925 48.7679C597.618 40.8894 592.106 38.2107 583.169 39.2743C555.806 42.5045 530.608 52.786 505.45 63.1856C501.513 64.8007 497.576 66.5339 493.914 68.1884C487.066 71.1914 479.65 72.6759 472.174 72.5399C464.698 72.4039 457.341 70.6507 450.606 67.4006C408.059 48.2296 365.512 29.1373 322.965 10.1239C319.64 8.81579 316.18 7.87786 312.65 7.32701C311.401 7.31188 310.16 7.52549 308.988 7.95729C309.201 9.34411 309.668 10.6796 310.366 11.8965C324.737 27.9293 339.146 43.962 353.674 59.8372C361.903 68.7399 370.447 77.3275 378.793 86.112C380.449 87.8463 381.939 89.7323 383.242 91.7451C384.835 93.9998 385.929 96.5678 386.454 99.2784C386.978 101.989 386.92 104.78 386.283 107.467C385.646 110.153 384.445 112.673 382.76 114.859C381.075 117.046 378.945 118.848 376.51 120.147C368.635 124.48 360.407 128.026 352.218 131.65C350.997 132.162 349.107 131.177 347.533 130.901C348.112 129.304 348.907 127.793 349.895 126.411C350.98 125.62 352.191 125.021 353.478 124.638C358.478 122.314 363.557 120.068 368.557 117.665C382.888 110.772 384.738 101.554 373.872 90.0907C357.848 72.8761 341.588 55.9374 325.524 38.8804C319.107 32.0261 313.043 24.7779 306.823 17.6872C305.862 16.5452 304.968 15.3483 304.146 14.1025C302.916 12.7234 302.189 10.9688 302.081 9.12379C301.974 7.27878 302.493 5.45168 303.555 3.93925C304.463 2.35202 305.894 1.13024 307.604 0.483384C309.314 -0.163469 311.195 -0.195095 312.925 0.393928C320.534 2.55888 328.002 5.19002 335.288 8.27243C370.643 24.2658 405.776 40.4561 440.685 56.8434C452.496 62.3583 464.543 67.1642 477.772 64.9188C486.134 63.4483 494.299 61.0161 502.103 57.6706C521.789 49.28 541.475 40.4167 562.853 36.2017C570.447 34.5719 578.122 33.349 585.846 32.5382C596.752 31.6716 604.153 37.0683 608.012 47.7043C609.896 51.9451 610.159 56.7303 608.751 61.1522C607.343 65.5742 604.362 69.3254 600.374 71.6944C592.263 77.5393 583.751 82.8047 574.901 87.4514C555.609 97.4177 536.278 107.148 516.474 116.09C493.639 126.253 481.04 143.664 476.394 167.576C471.748 191.487 467.26 214.847 461.709 238.482C458.441 252.27 453.323 265.624 448.874 279.096C447.753 282.051 446.342 284.888 444.661 287.565C438.48 298.122 429.188 298.359 423.361 287.565C420.546 282.476 418.892 276.825 418.519 271.02C417.771 250.261 418.086 229.461 417.652 208.701C417.416 197.672 416.983 186.602 415.684 175.651C414.66 166.67 409.778 163.833 400.802 165.488C394.502 166.788 388.439 168.994 382.179 170.451C362.45 175.103 341.693 172.164 324.028 162.218C306.004 152.123 286.655 144.605 266.546 139.883C264.814 139.489 263.042 139.134 261.27 138.859C259.982 138.848 258.693 138.913 257.412 139.056Z" fill="#525252" stroke="#525252" stroke-width="8" mask="url(#path-2-inside-1_101_3)"/>
</g>
<defs>
<clipPath id="clip0_101_3">
<rect width="611" height="332" fill="white" transform="translate(0.5)"/>
</clipPath>
</defs>
</svg>
